<svg
          className="header-icon"
          version="1.1"
          xmlns="http://www.w3.org/2000/svg"
          xmlnsXlink="http://www.w3.org/1999/xlink"
          width="24"
          height="24"
          viewBox="0 0 24 24">
          <g transform="scale(0.0234375 0.0234375)">
            <path d="M896 896v-85.333c0-58.88-23.936-112.299-62.464-150.869s-91.989-62.464-150.869-62.464h-341.333c-58.88 0-112.299 23.936-150.869 62.464s-62.464 91.989-62.464 150.869v85.333c0 23.552 19.115 42.667 42.667 42.667s42.667-19.115 42.667-42.667v-85.333c0-35.371 14.293-67.285 37.504-90.496s55.125-37.504 90.496-37.504h341.333c35.371 0 67.285 14.293 90.496 37.504s37.504 55.125 37.504 90.496v85.333c0 23.552 19.115 42.667 42.667 42.667s42.667-19.115 42.667-42.667zM725.333 298.667c0-58.88-23.936-112.299-62.464-150.869s-91.989-62.464-150.869-62.464-112.299 23.936-150.869 62.464-62.464 91.989-62.464 150.869 23.936 112.299 62.464 150.869 91.989 62.464 150.869 62.464 112.299-23.936 150.869-62.464 62.464-91.989 62.464-150.869zM640 298.667c0 35.371-14.293 67.285-37.504 90.496s-55.125 37.504-90.496 37.504-67.285-14.293-90.496-37.504-37.504-55.125-37.504-90.496 14.293-67.285 37.504-90.496 55.125-37.504 90.496-37.504 67.285 14.293 90.496 37.504 37.504 55.125 37.504 90.496z" />
          </g>
        </svg>