<svg width="0" height="0" class="hidden">
  <symbol class="header-icon" xmlns="http://www.w3.org/2000/svg" viewBox="0 0 24 24" id="cart">
    <path d="M20 7h-4v-3c0-2.209-1.791-4-4-4s-4 1.791-4 4v3h-4l-2 17h20l-2-17zm-11-3c0-1.654 1.346-3 3-3s3 1.346 3 3v3h-6v-3zm-4.751 18l1.529-13h2.222v1.5c0 .276.224.5.5.5s.5-.224.5-.5v-1.5h6v1.5c0 .276.224.5.5.5s.5-.224.5-.5v-1.5h2.222l1.529 13h-15.502z"></path>
  </symbol>
  <symbol class="header-icon" version="1.1" xmlns="http://www.w3.org/2000/svg" xmlns:xlink="http://www.w3.org/1999/xlink" viewBox="0 0 24 24" id="user">
    <g transform="scale(0.0234375 0.0234375)">
      <path d="M896 896v-85.333c0-58.88-23.936-112.299-62.464-150.869s-91.989-62.464-150.869-62.464h-341.333c-58.88 0-112.299 23.936-150.869 62.464s-62.464 91.989-62.464 150.869v85.333c0 23.552 19.115 42.667 42.667 42.667s42.667-19.115 42.667-42.667v-85.333c0-35.371 14.293-67.285 37.504-90.496s55.125-37.504 90.496-37.504h341.333c35.371 0 67.285 14.293 90.496 37.504s37.504 55.125 37.504 90.496v85.333c0 23.552 19.115 42.667 42.667 42.667s42.667-19.115 42.667-42.667zM725.333 298.667c0-58.88-23.936-112.299-62.464-150.869s-91.989-62.464-150.869-62.464-112.299 23.936-150.869 62.464-62.464 91.989-62.464 150.869 23.936 112.299 62.464 150.869 91.989 62.464 150.869 62.464 112.299-23.936 150.869-62.464 62.464-91.989 62.464-150.869zM640 298.667c0 35.371-14.293 67.285-37.504 90.496s-55.125 37.504-90.496 37.504-67.285-14.293-90.496-37.504-37.504-55.125-37.504-90.496 14.293-67.285 37.504-90.496 55.125-37.504 90.496-37.504 67.285 14.293 90.496 37.504 37.504 55.125 37.504 90.496z"></path>
    </g>
  </symbol>
</svg>